# xmcd CD database file
#
# Track frame offsets:
#	150
#	34367
#	73981
#	102725
#	136428
#	175433
#	220870
#
# Disc length: 3288 seconds
#
# Revision: 0
# Processed by: cddbd v1.5.1PL0 Copyright (c) Steve Scherf et al.
# Submitted via: CDex 1.51
#
DISCID=740cd607
DTITLE=Hilton Ruiz - A New York Story
DYEAR=2004
DGENRE=Jazz
TTITLE0=A New York Story
TTITLE1=Slow And Easy
TTITLE2=Another Kind Of Blues
TTITLE3=A Trio In Manhattan
TTITLE4=Double Bass Blues
TTITLE5=Slow And Easy
TTITLE6=Another Kind Of Blues
EXTD=YEAR: 2004
EXTT0=
EXTT1=
EXTT2=
EXTT3=
EXTT4=
EXTT5=
EXTT6=
PLAYORDER=
